<svg height="412pt" viewBox="0 -1 412.66 412" width="412pt" xmlns="http://www.w3.org/2000/svg"><path d="m341.339844 36.140625c-.011719.289063-.011719.570313-.011719.859375v312c0 .277344 0 .558594.011719.839844-6.578125-5.441406-96.070313-78.121094-190.25-78.121094v-157.429688c89.878906 0 183.519531-72.820312 190.25-78.148437zm0 0" fill="#00acea"/><path d="m162.269531 360.539062c5.683594 21.09375-6.8125 42.800782-27.90625 48.484376-20.578125 5.542968-41.847656-6.210938-48.101562-26.585938l-34.542969-112.558594v-.160156h99.371094v.191406c0 35.667969 4.910156 67.578125 11.179687 90.628906zm0 0" fill="#00ceb4"/><path d="m53.871094 114.289062v157.429688h-13.871094c-22.089844 0-40-17.910156-40-40v-77.429688c0-22.089843 17.910156-40 40-40zm0 0" fill="#00efd1"/><g fill="#fedb41"><path d="m339.339844 36.140625c.472656-20.246094 17.265625-36.273437 37.511718-35.800781 19.910157.464844 35.808594 16.742187 35.808594 36.660156v312c-.007812 20.25-16.429687 36.65625-36.679687 36.648438-19.910157-.007813-36.175781-15.90625-36.640625-35.808594-.011719-.28125-.011719-.5625-.011719-.839844v-312c0-.289062 0-.570312.011719-.859375zm0 0"/><path d="m51.871094 114.289062h99.21875v157.429688h-99.21875zm0 0"/></g></svg>