<svg height="512pt" viewBox="0 0 512 512" width="512pt" xmlns="http://www.w3.org/2000/svg" xmlns:xlink="http://www.w3.org/1999/xlink"><linearGradient id="a" gradientTransform="matrix(1 0 0 -1 0 -20854)" gradientUnits="userSpaceOnUse" x1="0" x2="512" y1="-21110" y2="-21110"><stop offset="0" stop-color="#00f38d"/><stop offset="1" stop-color="#009eff"/></linearGradient><path d="m512 256c0 141.386719-114.613281 256-256 256s-256-114.613281-256-256 114.613281-256 256-256 256 114.613281 256 256zm0 0" fill="url(#a)"/><g fill="#fff"><path d="m421.75 292.734375-21.214844-21.210937-46.097656 46.097656-46.097656-46.097656-21.210938 21.210937 46.097656 46.101563-46.097656 46.097656 21.210938 21.210937 46.097656-46.097656 46.097656 46.097656 21.214844-21.210937-46.097656-46.097656zm0 0"/><path d="m351.511719 170.449219c0-53.457031-43.492188-96.949219-96.949219-96.949219-53.460938 0-96.953125 43.492188-96.953125 96.949219 0 31.636719 15.234375 59.777343 38.746094 77.488281-62.960938 23.632812-107.890625 84.445312-107.890625 155.5625h30c0-75.046875 61.050781-136.097656 136.097656-136.097656 53.457031 0 96.949219-43.492188 96.949219-96.953125zm-96.949219 66.953125c-36.917969 0-66.953125-30.035156-66.953125-66.953125s30.035156-66.949219 66.953125-66.949219c36.914062 0 66.949219 30.03125 66.949219 66.949219s-30.035157 66.953125-66.949219 66.953125zm0 0"/></g></svg>